<svg xmlns="http://www.w3.org/2000/svg" width="400" height="400"><path fill="#FDFDFD" d="m199.375-.375 2.814.003C216.787-.327 230.785.42 245 4l3.018.748C261.625 8.213 274.427 12.766 287 19l2.338 1.136C316.426 33.388 340.687 52.962 359 77l1.326 1.702c26.801 34.682 40.15 77.13 40.049 120.673l-.003 2.814c-.045 14.598-.793 28.596-4.372 42.811l-.748 3.018C391.787 261.625 387.234 274.427 381 287l-1.136 2.338C366.612 316.426 347.038 340.687 323 359l-1.702 1.326c-34.682 26.801-77.13 40.15-120.673 40.049l-2.814-.003c-14.598-.045-28.596-.793-42.811-4.372l-3.018-.748C138.375 391.787 125.573 387.234 113 381l-2.338-1.136C83.574 366.612 59.313 347.038 41 323l-1.326-1.702C12.873 286.616-.476 244.168-.375 200.625l.003-2.814C-.327 183.213.42 169.215 4 155l.748-3.018C8.213 138.375 12.766 125.573 19 113l1.136-2.338C33.388 83.574 52.962 59.313 77 41l1.702-1.326c34.682-26.801 77.13-40.15 120.673-40.049"/><path fill="#FBFCFB" d="M108 53h14l-2 2h-6l1 16 4-2c.59-2.056.59-2.056.563-4.375.123-4.34.537-4.758 3.437-8.625v11c3.17-1.62 3.17-1.62 3.512-4.164l.175-2.461.2-2.477L127 56h1c.548 3.799.772 7.223 0 11-2.619 2.708-5.713 4.216-9 6-4.35 3.732-4.35 3.732-6 9h-2v8h2l1 5c3.351-2.234 4.816-3.262 5.813-7.25L120 85l3-1v5l4-1v-7l6-2h-4v-6q19.937-.07 39.874-.104 9.258-.014 18.516-.047 8.938-.032 17.876-.039 3.406-.004 6.813-.021c3.186-.015 6.372-.017 9.558-.016l2.831-.022c6.986.022 13.175 1.075 19.653 3.835l2.12.877c.725.3 1.45.602 2.196.912C257.59 82.064 268.016 86 278 86c-10.696-13.24-25.104-22.909-42-26-8.289-.88-16.644-.723-24.969-.707q-3.564-.02-7.128-.046c-6.201-.04-12.402-.05-18.603-.054-6.349-.01-12.697-.047-19.046-.082A9116 9116 0 0 0 129 59v-6q20.146-.141 40.294-.207c6.238-.021 12.476-.05 18.714-.095 6.03-.044 12.06-.067 18.09-.078q3.435-.01 6.87-.043c15.864-.144 30.032.586 44.345 8.173l2.009 1.037C265.111 64.87 270.166 68.56 275 73l1.95 1.777c3.703 3.543 6.662 7.364 9.644 11.52C288 88.206 288 88.206 290.625 89.5c6.132 3.873 7.804 13.282 9.625 19.867 1.085 5.256 1.102 10.296.75 15.633h-3v3h3c1.739 13.828-4.339 28.29-12.09 39.555-3.407 4.361-7.086 8.448-10.91 12.445 2.36 2.482 4.915 4.535 7.625 6.625C303.152 200.667 314.884 219.45 318 242c2.035 24.73-3.657 46.611-19.465 66.027C284.287 324.548 265.617 334.86 244 338c-2.01.085-4.024.122-6.036.12l-3.595.004-3.902-.01h-4.14q-5.603-.001-11.205-.013-5.862-.007-11.724-.008-11.091-.005-22.184-.021-14.994-.018-29.988-.024c-15.742-.01-31.484-.03-47.226-.048v-80l-13 8h-2c-2.706-26.028-2.706-26.028 1.636-32.402C95.188 229.62 101.803 226 108 226v-29l7-4v-2.312c0-5.688 0-5.688 1-8.688.158-3.053.158-3.053-1-6l1-2v-4l-8 4a822 822 0 0 1-.187-9.187l-.077-2.62c-.055-4.848-.066-8.356 3.264-12.193 2.008-1.187 2.008-1.187 4.125-2 2.108-.89 2.108-.89 3.875-2 1.128-2.615 1.128-2.615 1-5-2.51.703-2.51.703-5 2-.887 2.041-.887 2.041-1 4l-5-1c-.262-3.146-.248-4.618 1.5-7.312L112 137l-3-2c-.687-2.312-.687-2.312 0-5 3.055-2.487 6.49-4.245 10-6 .656-2.527.656-2.527 1-5-2.524.625-2.524.625-5 2-.894 2.548-.894 2.548-1 5-3.875-.875-3.875-.875-5-2-.562-2.25-.562-2.25 0-5 3.044-2.496 6.492-4.246 10-6 .656-2.527.656-2.527 1-5-2.524.625-2.524.625-5 2-.894 2.548-.894 2.548-1 5-3.875-.875-3.875-.875-5-2-.562-2.25-.562-2.25 0-5 3.044-2.496 6.492-4.246 10-6 .727-1.979 1.398-3.98 2-6h2v4l4-1-.062-3.375C127 92 127 92 128 90a348 348 0 0 0-6.437 3.625l-1.854 1.004c-3.31 1.939-4.573 2.883-5.62 6.644L114 104h-6z"/><path fill="#0D1131" d="M108 53h14l-2 2h-6l1 16 4-2c.59-2.056.59-2.056.563-4.375.123-4.34.537-4.758 3.437-8.625v11c3.17-1.62 3.17-1.62 3.512-4.164l.175-2.461.2-2.477L127 56h1c.548 3.799.772 7.223 0 11-2.619 2.708-5.713 4.216-9 6-4.35 3.732-4.35 3.732-6 9h-2v8h2l1 5c3.351-2.234 4.816-3.262 5.813-7.25L120 85l3-1v5l4-1v-7l6-2h-4v-6q19.937-.07 39.874-.104 9.258-.014 18.516-.047 8.938-.032 17.876-.039 3.406-.004 6.813-.021c3.186-.015 6.372-.017 9.558-.016l2.831-.022c6.986.022 13.175 1.075 19.653 3.835l2.12.877c.725.3 1.45.602 2.196.912C257.59 82.064 268.016 86 278 86c-10.696-13.24-25.104-22.909-42-26-8.289-.88-16.644-.723-24.969-.707q-3.564-.02-7.128-.046c-6.201-.04-12.402-.05-18.603-.054-6.349-.01-12.697-.047-19.046-.082A9116 9116 0 0 0 129 59v-6q20.146-.141 40.294-.207c6.238-.021 12.476-.05 18.714-.095 6.03-.044 12.06-.067 18.09-.078q3.435-.01 6.87-.043c15.864-.144 30.032.586 44.345 8.173l2.009 1.037C265.111 64.87 270.166 68.56 275 73l1.95 1.777c3.703 3.543 6.662 7.364 9.644 11.52C288 88.206 288 88.206 290.625 89.5c6.132 3.873 7.804 13.282 9.625 19.867 1.085 5.256 1.102 10.296.75 15.633h-3v3h3c1.739 13.828-4.339 28.29-12.09 39.555-3.407 4.361-7.086 8.448-10.91 12.445 2.36 2.482 4.915 4.535 7.625 6.625C303.152 200.667 314.884 219.45 318 242c2.035 24.73-3.657 46.611-19.465 66.027C284.287 324.548 265.617 334.86 244 338c-2.01.085-4.024.122-6.036.12l-3.595.004-3.902-.01h-4.14q-5.603-.001-11.205-.013-5.862-.007-11.724-.008-11.091-.005-22.184-.021-14.994-.018-29.988-.024c-15.742-.01-31.484-.03-47.226-.048v-80l-13 8h-2c-2.706-26.028-2.706-26.028 1.636-32.402C95.188 229.62 101.803 226 108 226v-29l7-4v-2.312c0-5.688 0-5.688 1-8.688.158-3.053.158-3.053-1-6l1-2v-4l-8 4a822 822 0 0 1-.187-9.187l-.077-2.62c-.055-4.848-.066-8.356 3.264-12.193 2.008-1.187 2.008-1.187 4.125-2 2.108-.89 2.108-.89 3.875-2 1.128-2.615 1.128-2.615 1-5-2.51.703-2.51.703-5 2-.887 2.041-.887 2.041-1 4l-5-1c-.262-3.146-.248-4.618 1.5-7.312L112 137l-3-2c-.687-2.312-.687-2.312 0-5 3.055-2.487 6.49-4.245 10-6 .727-1.979 1.398-3.98 2-6h2v4l2-1c.656-2.527.656-2.527 1-5 3.875.875 3.875.875 5 2 .04 1.666.043 3.334 0 5l-7 4v5h2v-5l4 1 1 5-2.375 1.875c-2.593 2.024-2.593 2.024-4.625 4.125v4h2v-5l4 1 1 5-2.375 1.875c-2.593 2.024-2.593 2.024-4.625 4.125-.167 3.583-.167 3.583 0 7l2-1c.407-2.322.744-4.657 1-7h6v11c-6.75 4-6.75 4-9 4l.219 1.73c.813 7.107.882 14.123.781 21.27l8-4v27c17.59-9.907 17.59-9.907 34.547-20.816 3.282-1.584 4.991-1.188 8.453-.184 2.29 1.207 2.29 1.207 4.625 2.813 5.189 3.44 10.466 6.685 15.813 9.875l2.593 1.551q5.285 3.16 10.573 6.315 3.825 2.284 7.646 4.571l2.503 1.497a701 701 0 0 1 17.873 11.082c4.378 2.779 8.674 4.946 13.374 7.296v31c-4.144-1.658-7.854-3.52-11.687-5.75l-3.45-1.984c-8.138-4.75-16.17-9.67-24.175-14.641l-5.56-3.445-2.678-1.661c-6.15-3.813-6.15-3.813-12.321-7.59a306 306 0 0 1-7.04-4.484l-4.026-2.57-1.865-1.259c-3.019-1.898-4.65-2.709-8.218-2.104-4.027 2.011-7.851 4.23-11.645 6.644-3.676 2.317-7.298 4.323-11.28 6.074-7.285 3.357-7.285 3.357-13.055 8.77-2.388 7.391-1.764 15.367-1 23l-6-3v54c21.535-.097 21.535-.097 43.07-.222 7.704-.05 15.408-.095 23.112-.124q10.135-.04 20.27-.117 3.858-.025 7.717-.035c3.614-.01 7.228-.037 10.842-.07l3.195.005c15.979-.2 30.777-6.43 42.255-17.57 13.477-15.219 17.417-31.378 16.714-51.276C293.12 229.96 284.227 216.435 273 206c-3.492-2.735-7.083-4.927-11-7l-3.14-1.687C249.116 192.6 239.69 191.66 229 191v-13l4.5-.5c13.584-2.507 26.312-10.333 34.625-21.305 3.208-4.772 5.19-8.42 5.875-14.195l-2.375 1.5C269 145 269 145 267 145l-.723 2.656c-3.376 8.838-11.319 15.161-19.629 19.2L244 168l-2.273.988c-6.411 2.442-11.496 2.41-18.727 3.012v25l6-.25c17.455.018 32.267 6.342 45 18.25 11.375 12.133 14.617 26.694 14.313 42.75-.596 13.904-7.117 27.739-17.313 37.25-11.298 9.159-22.552 13.33-36.984 13.227h-3.284c-3.566 0-7.131-.016-10.697-.032l-7.436-.008c-6.512-.008-13.023-.028-19.535-.05-6.65-.021-13.3-.03-19.949-.04-13.038-.02-26.077-.055-39.115-.097v-2l3.943-.018q18.45-.086 36.897-.218a6742 6742 0 0 1 18.967-.11q9.161-.041 18.323-.117 3.486-.025 6.97-.035c19.1-.056 36.117-.86 50.838-14.815C274.092 286.19 277.25 281.46 280 276l1.254-2.27c5.18-11.17 4.81-27.55.683-39.043-5.905-12.553-14.9-23.318-27.937-28.687l-3.437-1.625c-10.025-3.87-19.933-3.903-30.563-4.375v-31l7.25-.687c13.97-1.642 23.702-7.03 32.867-17.801 5.142-6.86 7.681-14.082 8.883-22.512h3v-3h-3l-.227-1.984C267.071 111.2 261.937 101.013 253 93c-3.19-2.372-6.462-4.203-10-6l-2.114-1.116c-9.972-4.415-20.938-3.49-31.616-3.493q-3.306-.023-6.612-.05c-5.769-.044-11.537-.064-17.306-.08-5.9-.019-11.798-.06-17.698-.1A9889 9889 0 0 0 133 82l.176 3.578q.07 2.336.137 4.672l.126 2.355c.124 5.801.124 5.801-2.752 8.833-4.207 2.446-8.542 4.567-12.921 6.683-2.988 1.618-2.988 1.618-3.657 4.602L114 115c-3.875-.875-3.875-.875-5-2-.562-2.25-.562-2.25 0-5 3.044-2.496 6.492-4.246 10-6 .727-1.979 1.398-3.98 2-6h2v4l4-1-.062-3.375C127 92 127 92 128 90a348 348 0 0 0-6.437 3.625l-1.854 1.004c-3.31 1.939-4.573 2.883-5.62 6.644L114 104h-6z"/><path fill="#E4E8EC" d="M108 53h14l-2 2h-6l1 16 4-2c.59-2.056.59-2.056.563-4.375.123-4.34.537-4.758 3.437-8.625v11c3.17-1.62 3.17-1.62 3.512-4.164l.175-2.461.2-2.477L127 56h1c.548 3.799.772 7.223 0 11-2.619 2.708-5.713 4.216-9 6-4.35 3.732-4.35 3.732-6 9h-2v8h2l1 5c3.351-2.234 4.816-3.262 5.813-7.25L120 85l3-1v5l4-1v-7l6-2h-4v-6q19.937-.07 39.874-.104 9.258-.014 18.516-.047 8.938-.032 17.876-.039 3.406-.004 6.813-.021c3.186-.015 6.372-.017 9.558-.016l2.831-.022c6.986.022 13.175 1.075 19.653 3.835l2.12.877c.725.3 1.45.602 2.196.912C257.59 82.064 268.016 86 278 86c-10.696-13.24-25.104-22.909-42-26-8.289-.88-16.644-.723-24.969-.707q-3.564-.02-7.128-.046c-6.201-.04-12.402-.05-18.603-.054-6.349-.01-12.697-.047-19.046-.082A9116 9116 0 0 0 129 59v-6q20.146-.141 40.294-.207c6.238-.021 12.476-.05 18.714-.095 6.03-.044 12.06-.067 18.09-.078q3.435-.01 6.87-.043c15.864-.144 30.032.586 44.345 8.173l2.009 1.037C265.111 64.87 270.166 68.56 275 73l1.95 1.777c3.702 3.542 6.805 7.363 9.788 11.524 1.294 1.828 1.294 1.828 3.262 3.699a84 84 0 0 1 2 5l1.254 3.41c.432 1.205.864 2.41 1.308 3.653l1.317 3.66c1.513 4.423 2.245 7.843 2.183 12.527l-.027 2.703L298 123h-2v6l2 1c1.088 16.05-7.03 30.874-17.07 42.906-2.461 2.67-5.07 4.863-7.93 7.094l-1 2 2.191.762c3.04 1.34 5.19 2.939 7.747 5.05l2.464 2.02L287 192l3.008 2.39C304.18 206.75 312.612 225.595 315 244c1.34 22.987-3.843 42.787-18 61l-1.934 2.492C282.471 322.628 263.357 332.224 244 335c-4.573.266-9.132.253-13.711.227h-4.054c-3.638.002-7.275-.01-10.913-.024-3.813-.013-7.626-.014-11.44-.016-7.206-.006-14.413-.023-21.62-.043-8.21-.022-16.42-.033-24.631-.043Q132.315 335.069 107 335a5112 5112 0 0 1-.26-30.694c-.025-4.75-.06-9.501-.117-14.252a1525 1525 0 0 1-.097-13.752q-.015-2.625-.055-5.249c-.036-2.45-.04-4.897-.039-7.347l-.054-2.195c.039-3.788.35-5.23 3.032-7.993C112 252 112 252 114 252v76c22.917-.062 22.917-.062 45.834-.16 9.355-.049 18.71-.093 28.065-.111q10.224-.019 20.446-.084c3.603-.022 7.206-.038 10.808-.037 20.798.249 20.798.249 40.847-4.608.75-.285 1.502-.57 2.275-.865 7.656-3.207 14.545-7.629 20.725-13.135l2.008-1.727c13.736-12.658 21.386-30.962 22.21-49.464.642-22.585-6.38-41.464-21.906-57.997-3.333-3.307-6.553-5.611-10.653-7.793-7.08-3.796-7.08-3.796-8.87-7.574-.351-3.353-.063-5.312 1.211-8.445 2.026-2.426 4.159-4.555 6.506-6.668C282.56 161.097 287.252 149.787 290 138v-2l-2 1q-3.5.061-7 0h-3l-2 7-2-2-2.375 1.5C269 145 269 145 267 145l-.723 2.656c-3.376 8.838-11.319 15.161-19.629 19.2L244 168l-2.273.988c-6.411 2.442-11.496 2.41-18.727 3.012v25l6-.25c17.455.018 32.267 6.342 45 18.25 11.375 12.133 14.617 26.694 14.313 42.75-.596 13.904-7.117 27.739-17.313 37.25-11.298 9.159-22.552 13.33-36.984 13.227h-3.284c-3.566 0-7.131-.016-10.697-.032l-7.436-.008c-6.512-.008-13.023-.028-19.535-.05-6.65-.021-13.3-.03-19.949-.04-13.038-.02-26.077-.055-39.115-.097v-2l3.943-.018q18.45-.086 36.897-.218a6742 6742 0 0 1 18.967-.11q9.161-.041 18.323-.117 3.486-.025 6.97-.035c19.1-.056 36.117-.86 50.838-14.815C274.092 286.19 277.25 281.46 280 276l1.254-2.27c5.18-11.17 4.81-27.55.683-39.043-5.905-12.553-14.9-23.318-27.937-28.687l-3.437-1.625c-10.025-3.87-19.933-3.903-30.563-4.375v-31l7.25-.687c13.97-1.642 23.702-7.03 32.867-17.801 5.142-6.86 7.681-14.082 8.883-22.512h3v-3h-3l-.227-1.984C267.071 111.2 261.937 101.013 253 93c-3.19-2.372-6.462-4.203-10-6l-2.114-1.116c-9.972-4.415-20.938-3.49-31.616-3.493q-3.306-.023-6.612-.05c-5.769-.044-11.537-.064-17.306-.08-5.9-.019-11.798-.06-17.698-.1A9889 9889 0 0 0 133 82l.176 3.578q.07 2.336.137 4.672l.126 2.355c.124 5.801.124 5.801-2.752 8.833-4.207 2.446-8.542 4.567-12.921 6.683-2.988 1.618-2.988 1.618-3.657 4.602L114 115c-3.875-.875-3.875-.875-5-2-.562-2.25-.562-2.25 0-5 3.044-2.496 6.492-4.246 10-6 .727-1.979 1.398-3.98 2-6h2v4l4-1-.062-3.375C127 92 127 92 128 90a348 348 0 0 0-6.437 3.625l-1.854 1.004c-3.31 1.939-4.573 2.883-5.62 6.644L114 104h-6z"/><path fill="#E2A244" d="M176 189c2.29 1.207 2.29 1.207 4.625 2.813 5.189 3.44 10.466 6.685 15.813 9.875l2.593 1.551q5.285 3.16 10.573 6.315 3.825 2.284 7.646 4.571l2.503 1.497a701 701 0 0 1 17.873 11.082c4.378 2.779 8.674 4.946 13.374 7.296v31c-4.144-1.658-7.854-3.52-11.687-5.75l-3.45-1.984c-8.138-4.75-16.171-9.67-24.175-14.641l-5.563-3.45-2.68-1.66a2749 2749 0 0 0-9.257-5.702l-2.973-1.848c-2.492-1.523-4.996-3-7.524-4.461l-4.441-2.629-2.136-1.2c-4.901-2.938-4.901-2.938-6.067-6.98L171 212l-8.244 4.946a11844 11844 0 0 0-14.622 8.783l-5.166 3.108q-3.48 2.089-6.968 4.163c-.686.41-1.372.82-2.078 1.244C129.235 237 129.235 237 127 237v-24c9.438-5.125 9.438-5.125 12.353-6.7a176 176 0 0 0 14.716-9.001c2.876-1.935 5.883-3.56 8.935-5.194 2.162-1.152 2.162-1.152 4.684-2.98 3.169-1.542 4.919-.93 8.312-.125"/><path fill="#0F1032" d="M108 53h14l-2 2h-6l1 16 4-2c.59-2.056.59-2.056.563-4.375.123-4.34.537-4.758 3.437-8.625v11c3.17-1.62 3.17-1.62 3.512-4.164l.175-2.461.2-2.477L127 56h1c.548 3.799.772 7.223 0 11-2.619 2.708-5.713 4.216-9 6-4.35 3.732-4.35 3.732-6 9h-2v8h2l1 5c3.351-2.234 4.816-3.262 5.813-7.25L120 85l3-1v5l4-1v-7l6-2h-4v-6q19.937-.07 39.874-.104 9.258-.014 18.516-.047 8.938-.032 17.876-.039 3.406-.004 6.813-.021c3.186-.015 6.372-.017 9.558-.016l2.831-.022c7.959.025 14.592 1.666 21.97 4.749l3.12 1.281C252 80 252 80 253 82l-9 1 1.836.96c13.48 7.509 21.084 17.518 25.672 32.056.59 2.378.728 4.545.492 6.984h2l1 7h-3l-.227 1.766c-1.923 11.991-7.651 22.2-16.773 30.234-10.3 7.03-19.486 8.957-32 10v25l6-.25c17.455.018 32.267 6.342 45 18.25 11.375 12.133 14.617 26.694 14.313 42.75-.596 13.904-7.117 27.739-17.313 37.25-11.298 9.159-22.552 13.33-36.984 13.227h-3.284c-3.566 0-7.131-.016-10.697-.032l-7.436-.008c-6.512-.008-13.023-.028-19.535-.05-6.65-.021-13.3-.03-19.949-.04-13.038-.02-26.077-.055-39.115-.097v-2l3.943-.018q18.45-.086 36.897-.218a6742 6742 0 0 1 18.967-.11q9.161-.041 18.323-.117 3.486-.025 6.97-.035c19.1-.056 36.117-.86 50.838-14.815C274.092 286.19 277.25 281.46 280 276l1.254-2.27c5.18-11.17 4.81-27.55.683-39.043-5.905-12.553-14.9-23.318-27.937-28.687l-3.437-1.625c-10.025-3.87-19.933-3.903-30.563-4.375v-31l7.25-.687c13.97-1.642 23.702-7.03 32.867-17.801 5.142-6.86 7.681-14.082 8.883-22.512h3v-3h-3l-.227-1.984C267.071 111.2 261.937 101.013 253 93c-3.19-2.372-6.462-4.203-10-6l-2.114-1.116c-9.972-4.415-20.938-3.49-31.616-3.493q-3.306-.023-6.612-.05c-5.769-.044-11.537-.064-17.306-.08-5.9-.019-11.798-.06-17.698-.1A9889 9889 0 0 0 133 82l.176 3.578q.07 2.336.137 4.672l.126 2.355c.124 5.801.124 5.801-2.752 8.833-4.207 2.446-8.542 4.567-12.921 6.683-2.988 1.618-2.988 1.618-3.657 4.602L114 115c-3.875-.875-3.875-.875-5-2-.562-2.25-.562-2.25 0-5 3.044-2.496 6.492-4.246 10-6 .727-1.979 1.398-3.98 2-6h2v4l4-1-.062-3.375C127 92 127 92 128 90a348 348 0 0 0-6.437 3.625l-1.854 1.004c-3.31 1.939-4.573 2.883-5.62 6.644L114 104h-6z"/><path fill="#F9FBFB" d="M108 52h122v1H129v6l3.995-.02q18.67-.091 37.34-.135c6.399-.016 12.797-.037 19.195-.071 6.18-.033 12.359-.05 18.538-.059q3.53-.008 7.059-.032c3.305-.022 6.61-.025 9.915-.024l2.923-.032c17.581.08 33.034 9.384 45.687 20.908 2.247 2.36 3.805 4.608 5.348 7.465-5.864-.621-11.425-1.686-17.125-3.187l-2.499-.654c-6.433-1.752-12.374-4.079-18.396-6.925-6.196-2.566-12.515-2.399-19.116-2.44l-3.047-.03q-4.967-.044-9.934-.08l-6.902-.063q-9.07-.082-18.14-.153-9.26-.077-18.52-.161Q147.16 73.145 129 73v6h4l-1 2h-4l-1 7-4 1-1-4h-2l.313 2.75C120 91 120 91 117.625 93.25L115 95l-2 2v-7h-2v-8h2l.188-2.75c1.586-6.345 8.498-9.032 13.812-12.25l-1-1-3 1-2-3-.687 2.875L119 70l-5 2V55l6-1-12-1z"/><path fill="#E1E4E8" d="M313 238h1c4.049 20.08.059 42.095-11.227 59.22-1.844 2.658-3.788 5.226-5.773 7.78l-1.934 2.492C282.471 322.628 263.357 332.224 244 335c-4.573.266-9.132.253-13.711.227h-4.054c-3.638.002-7.275-.01-10.913-.024-3.813-.013-7.626-.014-11.44-.016-7.206-.006-14.413-.023-21.62-.043-8.21-.022-16.42-.033-24.631-.043Q132.315 335.068 107 335a5112 5112 0 0 1-.26-30.694c-.025-4.75-.06-9.501-.117-14.252a1525 1525 0 0 1-.097-13.752q-.015-2.625-.055-5.249c-.036-2.45-.04-4.897-.039-7.347l-.054-2.195c.039-3.788.35-5.23 3.032-7.993C112 252 112 252 114 252v76c22.917-.062 22.917-.062 45.834-.16 9.355-.049 18.71-.093 28.065-.111q10.224-.019 20.446-.084c3.603-.022 7.206-.038 10.808-.037 20.798.249 20.798.249 40.847-4.608.75-.285 1.502-.57 2.275-.865 7.656-3.207 14.545-7.629 20.725-13.135l2.008-1.727C302.04 291.577 306.765 270.26 308 248h1v14l5 1z"/><path fill="#E8ECF0" d="M275 141c-.191 8.594-5.544 15.631-11.25 21.75-8.188 7.606-20.55 15.516-32.062 15.563L229 178v13l5.375-.125c16.82.118 31.686 7.448 43.695 19.14 12.539 13.254 17.592 28.289 17.4 46.225-.6 17.611-8.239 32.309-20.936 44.414-9.607 8.427-22.677 14.48-35.577 14.466l-3.004.004-3.26-.01h-3.461c-3.771 0-7.543-.009-11.314-.016l-7.848-.005q-9.27-.005-18.54-.021-11.592-.017-23.184-.023c-13.782-.01-27.564-.03-41.346-.049v-54l4 1-2 2-1 50 111-1v-3l-106-1v-4h107v1H134v2q21.398-.055 42.796-.184c6.625-.04 13.25-.072 19.874-.087 6.4-.015 12.8-.05 19.2-.097q3.652-.023 7.304-.024c3.425-.002 6.85-.03 10.274-.062l3.015.015C250.256 307.36 263.059 301.49 273 292c12.078-13.817 15.296-29.605 14.254-47.501-1.325-13.015-8.839-25.48-18.817-33.722-11.46-8.356-24.693-12.42-38.75-13.34L223 197v-25l7.438-1.25c6.308-1.147 11.944-2.548 17.562-5.75l2.258-1.238c6.657-4.006 12.448-9.798 15.742-16.926 1.528-2.806 5.724-5.836 9-5.836"/><path fill="#161720" d="M241 81h10v1l-7 1 1.836.96c13.48 7.509 21.084 17.518 25.672 32.056.59 2.378.728 4.545.492 6.984h2l1 7h-3l-.227 1.766c-1.923 11.991-7.651 22.2-16.773 30.234-10.3 7.03-19.486 8.957-32 10v25l6-.25c17.455.018 32.267 6.342 45 18.25 11.375 12.133 14.617 26.694 14.313 42.75-.596 13.904-7.117 27.739-17.313 37.25-11.298 9.159-22.552 13.33-36.984 13.227h-3.284c-3.566 0-7.131-.016-10.697-.032l-7.436-.008c-6.512-.008-13.023-.028-19.535-.05-6.65-.021-13.3-.03-19.949-.04-13.038-.02-26.077-.055-39.115-.097v-2l3.943-.018q18.45-.086 36.897-.218a6742 6742 0 0 1 18.967-.11q9.161-.041 18.323-.117 3.486-.025 6.97-.035c19.1-.056 36.117-.86 50.838-14.815C274.092 286.19 277.25 281.46 280 276l1.254-2.27c5.18-11.17 4.81-27.55.683-39.043-5.905-12.553-14.9-23.318-27.937-28.687l-3.437-1.625c-10.025-3.87-19.933-3.903-30.563-4.375v-31l7.25-.687c13.97-1.642 23.702-7.03 32.867-17.801 5.142-6.86 7.681-14.082 8.883-22.512h3v-3h-3l-.227-1.984C267.078 111.249 261.964 100.94 253 93a88 88 0 0 0-7.8-4.71c-2.106-1.235-3.573-2.489-5.2-4.29z"/><path fill="#AD7D35" d="M172 188c.263 3.707.422 7.412.563 11.125l.228 3.172c.216 7.58.216 7.58-2.454 10.558-2.37 1.602-4.776 2.873-7.337 4.145a505 505 0 0 0-5.27 3.184 2116 2116 0 0 1-5.542 3.254l-2.92 1.713-5.694 3.338a1031 1031 0 0 0-6.601 3.91l-3.223 1.913-2.703 1.614C129 237 129 237 127 237v-24c9.438-5.125 9.438-5.125 12.353-6.7a176 176 0 0 0 14.716-9.001c2.165-1.457 4.38-2.754 6.681-3.987 2.446-1.323 4.819-2.663 7.188-4.125C170 188 170 188 172 188"/><path fill="#B6997E" d="M126 116c3.875.875 3.875.875 5 2 .04 1.666.043 3.334 0 5l-7 4v5h2v-5l4 1 1 5-2.375 1.875c-2.593 2.024-2.593 2.024-4.625 4.125v4h2v-5l4 1 1 5-2.375 1.875c-2.593 2.024-2.593 2.024-4.625 4.125-.167 3.583-.167 3.583 0 7l2-1c.407-2.322.744-4.657 1-7h6v11c-6.75 4-6.75 4-9 4l.219 1.836c.592 5.35.859 10.556.719 15.937-.009 2.554-.009 2.554 1.062 6.227l-10 5c-1.375-6.875-1.375-6.875 0-11 .158-3.053.158-3.053-1-6l1-2v-4l-8 4a822 822 0 0 1-.187-9.187l-.077-2.62c-.055-4.848-.066-8.356 3.264-12.193 2.008-1.187 2.008-1.187 4.125-2 2.108-.89 2.108-.89 3.875-2 1.128-2.615 1.128-2.615 1-5-2.51.703-2.51.703-5 2-.887 2.041-.887 2.041-1 4l-5-1c-.262-3.146-.248-4.618 1.5-7.312L112 137l-3-2c-.687-2.312-.687-2.312 0-5 3.055-2.487 6.49-4.245 10-6 .727-1.979 1.398-3.98 2-6h2v4l2-1c.656-2.527.656-2.527 1-5"/><path fill="#13122A" d="M129 53q20.146-.141 40.294-.207c6.238-.021 12.476-.05 18.714-.095 6.03-.044 12.06-.067 18.09-.078q3.435-.01 6.87-.043c15.864-.144 30.032.586 44.345 8.173l2.009 1.037C265.111 64.87 270.166 68.56 275 73l1.984 1.813c3.9 3.732 7.003 7.713 10.016 12.187l-1 2c-6.647-1.78-9.46-4.344-13.797-9.586-10.49-11.493-26.31-18.893-41.76-19.884-6.47-.261-12.938-.25-19.412-.237q-3.564-.02-7.128-.046c-6.201-.04-12.402-.05-18.603-.054-6.349-.01-12.697-.047-19.046-.082A9116 9116 0 0 0 129 59z"/><path fill="#0E1231" d="M257 83c3.024.256 5.995.591 9 1l3.281.418c8.445 1.443 8.445 1.443 11.707 4.36 1.634 2.334 2.836 4.626 4.012 7.222l1.39 2.906c4.385 9.777 7.138 20.303 5.61 31.094-1.987 2.71-3.036 3.01-6.375 4-3.625 0-3.625 0-6.562-1.562-3.322-3.857-2.16-8.973-2-13.739C276.89 108.57 272.097 100.757 266 93l-2.125-2.812c-2.17-2.531-4.486-4.865-6.875-7.188"/><path fill="#C2C3C5" d="M108 52h122v1H129v19h100v1H129v6h4l-1 2h-4l-1 7-4 1-1-4h-2l.313 2.75C120 91 120 91 117.625 93.25L115 95l-2 2v-7h-2v-8h2l.188-2.75c1.586-6.345 8.498-9.032 13.812-12.25l-1-1-3 1-2-3-.687 2.875L119 70l-5 2V55l6-1-12-1z"/><path fill="#5D5D5A" d="M108 53h14l-2 2h-6l1 16 4-2c.59-2.056.59-2.056.563-4.375.123-4.34.537-4.758 3.437-8.625v11c3.17-1.62 3.17-1.62 3.512-4.164l.175-2.461.2-2.477L127 56h1c.548 3.799.772 7.223 0 11-2.619 2.708-5.713 4.216-9 6-4.35 3.732-4.35 3.732-6 9h-2v8h2l1 5c3.351-2.234 4.816-3.262 5.813-7.25L120 85l3-1v5l4-1v-7l6-2-4-1h5c-.023 3.418-.1 6.833-.187 10.25l-.018 2.934c-.222 7.155-.222 7.155-2.924 10.273a341 341 0 0 1-13.105 6.664c-2.988 1.618-2.988 1.618-3.657 4.602L114 115c-3.875-.875-3.875-.875-5-2-.562-2.25-.562-2.25 0-5 3.044-2.496 6.492-4.246 10-6 .727-1.979 1.398-3.98 2-6h2v4l4-1-.062-3.375C127 92 127 92 128 90a348 348 0 0 0-6.437 3.625l-1.854 1.004c-3.31 1.939-4.573 2.883-5.62 6.644L114 104h-6z"/><path fill="#0E1232" d="m278 135 3 1c3.684.132 6.49.17 10-1-.605 7.145-2.7 13.086-5.875 19.438l-1.03 2.078c-2.728 5.27-4.992 8.783-10.845 10.734L270 168v2h-2v2c-2.375 1.063-2.375 1.063-5 2l-2-1-1 3-2.187-.687c-2.848-.519-2.848-.519-5.563.625-3.35 3.07-3.03 5.601-3.25 10.062h-1v-10l-2-1c2.41-2.673 5.022-4.264 8.125-6.062C266.807 160.907 273.583 149.083 278 135"/><path fill="#1D1F24" d="M289 90c1.875.3 1.875.3 4 1 6.406 10.21 8.786 22.084 8 34h-3v3h3c1.739 13.828-4.339 28.29-12.09 39.555-3.407 4.361-7.086 8.448-10.91 12.445 2.36 2.482 4.915 4.535 7.625 6.625C303.034 200.572 315.099 219.51 318 242c.429 7.329.264 14.668 0 22h-1l-1-19-2-1a122 122 0 0 1-1.812-7.25c-3.178-13.317-7.94-23.895-16.188-34.75l-1.457-2.02c-5.715-7.372-14.515-13.375-22.543-17.98 1.285-2.867 2.571-4.976 5-7h2l.758-1.672c1.466-2.748 3.237-5.095 5.117-7.578 7.838-10.724 12.22-22.408 13.125-35.75l-3-1 1-6h2c-1.03-10.114-3.238-18.56-7-28l-1.156-2.902z"/><path fill="#B8BCC2" d="m127 261 4 1-2 2-1 50 111-1v-3l-106-1v-4h107v1H134v2q21.27-.02 42.537-.132c6.585-.034 13.17-.06 19.756-.064 6.368-.004 12.735-.033 19.102-.077q3.626-.02 7.25-.013c14.33.02 28.255-.164 41.355-6.714-.375 2.438-.375 2.438-1 5l-2 1-1 3c-2.328 1.133-2.328 1.133-5.25 2.125l-2.89 1.008c-4.357 1.321-8.35 1.992-12.903 1.987l-3.004.004-3.26-.01h-3.461c-3.771 0-7.543-.009-11.314-.016l-7.848-.005q-9.27-.005-18.54-.021-11.592-.017-23.184-.023c-13.782-.01-27.564-.03-41.346-.049z"/><path fill="#F4F9FB" d="M134 309h110l-4 2-1 3H132z"/><path fill="#0D0F33" d="m248 175 1 3 2.75-2.062C255 174 255 174 257.063 174.063L259 175l2.75 1c2.599 2.31 2.756 3.016 3.063 6.375-.135 3.06-.362 4.2-2.614 6.324A50.6 50.6 0 0 1 256 192l1 2c-2.469.914-3.583 1.186-6.031.094-4.191-1.544-8.354-1.816-12.781-2.219l-2.678-.262q-3.255-.314-6.51-.613v-13l5.188-.875c3.04-.513 5.643-1.053 8.488-2.258C245 174 245 174 248 175"/><path fill="#0F1019" d="m315 244 2 1c.06 3.604.094 7.208.125 10.813l.05 3.044c.14 21.525-9.384 39.959-24.23 55.288-14.392 14.272-33.384 23.338-53.762 23.29l-3.9-.073q-2.115-.016-4.232-.027c-3.783-.026-7.564-.076-11.346-.131-3.97-.054-7.941-.084-11.912-.117-7.497-.065-14.994-.15-22.491-.244-8.544-.106-17.088-.188-25.633-.268q-26.335-.25-52.669-.575v-1l2.095-.004q25.332-.056 50.664-.18c8.167-.04 16.334-.072 24.501-.087q10.688-.019 21.377-.084c3.767-.022 7.533-.038 11.3-.037 21.87.2 21.87.2 43.063-4.608l3.347-1.177c7.614-2.814 14.121-7.058 20.653-11.823l1.922-1.355c12.73-9.851 22.044-26.281 26.078-41.645l.582-2.066c2.196-9.086 2.085-18.634 2.418-27.934"/><path fill="#60605B" d="M127 149h6v11c-6.75 4-6.75 4-9 4l.219 1.836c.592 5.35.859 10.556.719 15.937-.009 2.554-.009 2.554 1.062 6.227l-10 5c-1.375-6.875-1.375-6.875 0-11 .158-3.053.158-3.053-1-6l1-2v-4l-8 4q-.08-4.625-.125-9.25c-.017-.873-.034-1.745-.05-2.645l-.02-2.558-.032-2.349c.254-2.457 1.003-4.071 2.227-6.198l1 2-1 2 4-3 2 1-1 1a86 86 0 0 0-.562 4.563l-.254 2.503L114 163c2.593-.935 2.593-.935 5-3 .764-2.727.86-5.142 1-8l3-1v6l3-1z"/><path fill="#E3A84F" d="m151.041 247.886 2.65.016 2.577.008 3.294.027L170 248v21h-22l-.063-9.938-.027-3.136-.008-2.453-.016-2.524c.158-2.708.448-2.912 3.155-3.063"/><path fill="#08090C" d="M287 245h1c.705 17.445-1.853 32.279-13.25 46.25-8.049 8.651-20.142 16.027-32.16 16.931-2.86.064-5.714.066-8.574.046h-3.284c-3.566 0-7.131-.016-10.697-.032l-7.436-.008c-6.512-.008-13.023-.028-19.535-.05-6.65-.021-13.3-.03-19.949-.04-13.038-.02-26.077-.055-39.115-.097v-2l3.943-.018q18.45-.086 36.897-.218a6742 6742 0 0 1 18.967-.11q9.161-.041 18.323-.117 3.486-.025 6.97-.035c19.1-.056 36.117-.86 50.838-14.815 12.182-13.186 14.87-28.5 17.062-45.687"/><path fill="#E3A447" d="M176 276h21v20h-21z"/><path fill="#E5A23F" d="M176 249h21v20h-21z"/><path fill="#DFE4E6" d="M294 243h1c.81 21.744-2.393 38.34-17.65 54.826-4.51 4.623-9.578 8.283-15.35 11.174h-2l1-3 2-1v-3l-4 1c2.346-1.892 4.686-3.772 7.125-5.543C277.581 289.001 284.516 277.051 287 263c.567-5.32.806-10.656 1-16h1v13l3-1 1 1z"/><path fill="#E3A344" d="M149 276h20v20h-20z"/><path fill="#E5E8EF" d="M292 203c3.853.472 6.049 1.039 8.813 3.832C313.353 223.71 314.452 242.727 314 263l-5-1-.078-2.43c-.896-17.951-4.756-36.12-15.82-50.703C292 207 292 207 292 203"/><path fill="#F5F8F9" d="M109 254h4v73l-2-3-3 2q-.034-13.86-.052-27.72-.007-6.435-.023-12.87-.016-6.205-.02-12.41a2129 2129 0 0 0-.01-4.745 1905 1905 0 0 1-.009-6.624l-.006-3.815C108 255 108 255 109 254"/><path fill="#1F202C" d="m221 170 7 1v1h-5v25l6-.25c17.455.018 32.267 6.342 45 18.25 7.308 7.795 13.588 19.178 14 30-.42 4.39-1.12 8.68-2 13h-1l-.043-3.043c-.432-15.032-4.724-27.429-15.348-38.434-4.834-4.552-9.476-7.998-15.609-10.523l-3.437-1.625c-8.015-3.093-15.88-3.71-24.403-4.129C223 200 223 200 221 199z"/><path fill="#AB7D39" d="M114 229c1.797 11.591 1.797 11.591 0 17-3.845 4.524-9.659 6.722-15 9-1.338.658-2.674 1.32-4 2-2.042-12.255-2.042-12.255 0-18 4.136-4.635 12.6-10 19-10"/><path fill="#282640" d="M236 55v3c-4.95 1.298-9.853 1.133-14.93 1.114h-3.018c-3.284 0-6.568-.009-9.853-.016l-6.839-.005q-8.994-.006-17.987-.024-9.18-.014-18.36-.02Q147.008 59.033 129 59v-3a580646 580646 0 0 1 74.118-.748l18.665-.189c4.74-.046 9.477-.072 14.217-.063"/><path fill="#96999B" d="m128 69 1 3h100v1H129v6h4l-1 2h-4l-1 7-4 1-1-4h-2l.313 2.75C120 91 120 91 117.625 93.25L115 95l-2 2v-7h-2v-8h2l1-4v5l6-2v-7h3v4c3.861-2.574 3.943-4.61 5-9"/><path fill="#C79749" d="m172 210 2.438 1.75c3.299 2.21 6.766 3.771 10.414 5.32 2.091.905 4.12 1.893 6.148 2.93v3l3.875.75c3.917.955 3.917.955 5.625 3.375L201 229l-2 3 9-1 1 3h-3v2h2l1.313 1.375c2.043 1.968 4.032 2.692 6.687 3.625v3c-3.338-1.263-6.354-2.691-9.406-4.54l-2.486-1.497-2.608-1.588-2.69-1.627A3114 3114 0 0 1 191 230l-2.104-1.28A825 825 0 0 1 178 222l-3.328-1.953C172 218 172 218 171.414 215.859z"/><path fill="#575756" d="M129 78h5c-.023 3.418-.1 6.833-.187 10.25l-.018 2.934c-.222 7.155-.222 7.155-2.924 10.273a341 341 0 0 1-13.105 6.664c-2.988 1.618-2.988 1.618-3.657 4.602L114 115c-3.875-.875-3.875-.875-5-2-.562-2.25-.562-2.25 0-5 3.044-2.496 6.492-4.246 10-6 .727-1.979 1.398-3.98 2-6h2v4l4-1-.062-3.375C127 92 127 92 128 90l-3 2c-2.187-.375-2.187-.375-4-1v-6l2-1v5l4-1v-7l6-2z"/><path fill="#E2E5EA" d="M279 87c1.46.114 2.917.242 4.375.375l2.46.21C288 88 288 88 290 90a84 84 0 0 1 2 5l1.254 3.41c.432 1.205.864 2.41 1.308 3.653l1.317 3.66c1.513 4.423 2.245 7.843 2.183 12.527l-.027 2.703L298 123h-2v6h-1v-6h-2v6h-1l-.297-3.043C290.174 111.487 286.321 99.565 279 87"/><path fill="#F1F3F9" d="M223 172h9v4l3 1-6 1v13h12l1 5c-1 1-1 1-2.766 1.114l-2.27-.016-2.206-.008-2.82-.028L223 197z"/><path fill="#D9DDE2" d="M313 238h1c3.849 19.09-.524 36.509-8 54h-4l.063-2.875c.163-3.032.163-3.032-1.063-5.125.707-2.215.707-2.215 1.813-4.937 3.82-10.147 4.59-20.295 5.187-31.063h1v14l5 1z"/><path fill="#1E2434" d="M115 254h1v72l132-1v2c-6.83 1.056-13.481 1.1-20.383 1.022l-3.698-.03q-4.986-.04-9.971-.093-5.223-.05-10.446-.092-9.876-.085-19.751-.18c-8.236-.08-16.472-.151-24.708-.223-14.681-.127-29.362-.266-44.043-.404z"/><path fill="#050616" d="M129 73q19.937-.07 39.874-.104 9.258-.014 18.516-.047 8.938-.032 17.876-.039 3.406-.004 6.813-.021c3.186-.015 6.372-.017 9.558-.016l2.831-.022c7.959.025 14.592 1.666 21.97 4.749l3.12 1.281C252 80 252 80 253 82l-12-1 1 4c-5.75-.75-5.75-.75-8-3 .375-2.125.375-2.125 1-4h-5v-4H129z"/><path fill="#BB9F7C" d="M123 165c2.498 3.747 2.19 6.617 2.063 10.938-.103 4.227-.1 7.91.937 12.062l-10 5c-1.375-6.875-1.375-6.875 0-11 .158-3.053.158-3.053-1-6l1-2a76 76 0 0 0-1-5z"/><path fill="#8A7664" d="m126 138 4 1 1 5-2.375 1.875c-2.593 2.024-2.593 2.024-4.625 4.125-.167 3.583-.167 3.583 0 7h-1v-6l-2 1-.375 3.875c-.382 3.874-.382 3.874-2.562 6.125-2.063 1-2.063 1-4.063 1v-9l-4 1c0-2.25 0-2.25 1-5 2.004-1.157 4.067-2.03 6.188-2.953 2.115-.963 2.115-.963 2.812-3.797V141l-2-1 6-1v4h2z"/><path fill="#14141E" d="M289 90c1.875.3 1.875.3 4 1 6.406 10.21 8.786 22.084 8 34h-3v3h3c1.077 10.528-1.954 18.512-6 28-1.113-1.613-1.113-1.613-2-4 .645-2.918.645-2.918 1.813-6.187 1.802-5.379 2.804-10.166 3.187-15.813l-3-1 1-6h2c-1.03-10.114-3.238-18.56-7-28l-1.156-2.902z"/><path fill="#E1E5E7" d="M257.063 174.063 259 175l2.75 1c2.636 2.343 2.708 3.03 2.938 6.438-.213 3.83-.478 4.357-3.375 7.187-3.57 1.482-4.773 1.773-8.313.375-2.312-1-2.312-1-4-3-.697-3.142-.757-5.866 0-9 2.642-2.522 4.31-4.051 8.063-3.937"/><path fill="#060620" d="m95 239 1 17 5-3h2l-1 4 3-1v80l2 1h-3v-79l-8 5-4-1v-22c2-1 2-1 3-1"/><path fill="#5A5B57" d="m114 56 1 15 4-2c.59-2.056.59-2.056.563-4.375.123-4.34.537-4.758 3.437-8.625v11c3.17-1.62 3.17-1.62 3.512-4.164l.175-2.461.2-2.477L127 56h1c.548 3.799.772 7.223 0 11-2.619 2.708-5.713 4.216-9 6-3.396 2.972-5.067 4.646-6 9l-3 1c-1.644-1.644-1.13-3.544-1.133-5.805l-.004-2.957.012-3.113-.012-3.09.008-5.69C109 60 109 60 110 57c3-1 3-1 4-1"/><path fill="#E9EDF0" d="M308 226h2c5.168 11.685 4.134 24.471 4 37l-5-1-.184-2.922-.253-3.828-.247-3.797c-.21-3.259-.21-3.259-.851-5.594-.778-3.112-.48-6.234-.402-9.422-.06-2.314-.408-4.225-1.063-6.437h2zm0 6 1 2Z"/><path fill="#E5E9EF" d="M302 285c1.333 2.667.671 4.167 0 7h2l1-3c-.487 4.87-1.79 7.629-4.75 11.5l-2.191 2.867L296 306l-1.465 2.008c-1.877 2.483-3.223 3.873-6.16 4.992-2.375 0-2.375 0-5.375-2l2.625-2.937c2.897-3.379 5.362-6.914 7.785-10.641 2.763-4.21 5.687-8.308 8.59-12.422"/><path fill="#E0E4EA" d="M242 192c6.667 0 11.515 1.926 17.375 4.875l2.127 1.066c3.328 1.73 5.918 3.294 8.498 6.059-3 0-3 0-6-2l-3 3-2.59-.871a562 562 0 0 0-9.973-3.191l-3.316-1.036A80 80 0 0 0 237 198l1.938-1.312c2.33-1.6 2.33-1.6 3.062-4.688"/><path fill="#E9EDF2" d="m283 160 3 2c-.34 5.431-3.45 9.129-7 13-2.89 2.495-5.889 4.788-9 7l3 2h-5l-1 2c-.674-3.52-.786-6.49 0-10 3.487-4.735 7.67-8.656 12.77-11.598 2.537-1.266 2.537-1.266 3.23-4.402"/><path fill="#8A6C47" d="M126 105c3.875.875 3.875.875 5 2 .352 2.367.352 2.367 0 5-1.977 1.695-1.977 1.695-4.625 3.125l-2.754 1.535c-2.027 1.037-4.098 1.988-6.183 2.903-2.698 1.228-2.698 1.228-3.313 4.124L114 126c-3.875-.875-3.875-.875-5-2-.562-2.25-.562-2.25 0-5 3.044-2.496 6.492-4.246 10-6 .727-1.979 1.398-3.98 2-6h2v4l2-1c.656-2.527.656-2.527 1-5"/><path fill="#17171E" d="M241 81h10v1l-7 1 1.836.96C256.487 89.894 264.532 97.53 269 109l.809 1.973c1.505 4.255.979 6.955-.809 11.027h-1l-.125-3.25c-1.286-9.955-7.48-19.2-14.875-25.75a88 88 0 0 0-7.8-4.71c-2.106-1.235-3.573-2.489-5.2-4.29z"/><path fill="#D7DAE1" d="M294 243h1c.452 12.15.848 23.587-4 35l-2 2-3-5-2 1 .621-2.281c2.268-8.943 3.037-17.527 3.379-26.719h1v13l3-1 1 1z"/><path fill="#A28155" d="m126 127 4 1 1 5c-4.14 3.712-8.721 6.002-13.672 8.438-2.486 1.342-2.486 1.342-3.156 3.75L114 147l-5-1c-.312-2.25-.312-2.25 0-5 3.263-3.359 6.532-4.753 11-6v-5l3-1v4l2-1c.656-2.527.656-2.527 1-5"/><path fill="#0D0F19" d="M275 106h2l.586 6.152L278 114l2 1-.25 2.27c-.015 2.825-.015 2.825 2 4.68l2.25 1.737a85 85 0 0 1 4 3.313v2l2-1v-6h2c.361 7.342.361 7.342-1.062 9.938C287.849 133.63 285.52 134 282 134c-3.732-1.985-3.732-1.985-5-5-.263-3.518-.18-6.936-.043-10.46.055-4.504-.764-8.217-1.957-12.54"/><path fill="#171A20" d="m315 244 2 1c.06 3.604.094 7.208.125 10.813l.05 3.044c.066 10.106-1.118 19.12-5.675 28.205l-.934 1.967c-1.303 2.695-2.435 4.84-4.566 6.971-.368-5.153.944-9.065 2.875-13.75 4.945-12.715 5.64-24.696 6.125-38.25"/><path fill="#D9A85F" d="M176 249h21v20h-21zm1 2v16h18v-16z"/><path fill="#1F2024" d="M305 211c3 1 3 1 4.875 4 4.526 9.593 8.285 21.662 8.223 32.3l-.01 2.96-.026 3.053-.013 3.11q-.018 3.79-.049 7.577h-1l-1-19-2-1a121 121 0 0 1-1.812-7.25c-1.916-8.217-4.4-16.173-8.188-23.75z"/><path fill="#F8E8C1" d="m148 274 10.875-.125 3.425-.055 2.692-.015 2.761-.032C170 274 170 274 172 276c.135 2.063.135 2.063-.023 4.57l-.157 2.715-.195 2.84-.172 2.863A897 897 0 0 1 171 296h-2v-20h-20v20h19v1h-20z"/><path fill="#9D7B57" d="M121 96h2v4l7-1v3l-3.246 1.574-4.192 2.114-2.142 1.029c-4.236 2.047-4.236 2.047-6.393 6.053L114 115c-3.875-.875-3.875-.875-5-2-.562-2.25-.562-2.25 0-5 3.044-2.496 6.492-4.246 10-6 .727-1.979 1.398-3.98 2-6"/><path fill="#E1E4E7" d="m248 165 2 1-2 4h3v2c-6.76 3.424-12.4 5.626-20 6l1-6-4-1c.941-.182 1.882-.364 2.852-.55 1.245-.252 2.49-.504 3.773-.762l3.727-.739c3.688-.825 3.688-.825 6.984-2.617z"/><path fill="#1C1F37" d="M95.625 234.25 99 235l1 2c-5.75 3-5.75 3-8 3v22h2l-1 3c-2.062.688-2.062.688-4 1q-.111-6.353-.165-12.708a575 575 0 0 0-.061-4.324c-.037-2.07-.054-4.14-.067-6.21l-.048-3.777L89 236c3-2 3-2 6.625-1.75"/><path fill="#0D0D15" d="m252 159 2 3c-7.476 6.117-16.212 9.595-25.965 9.238-2.365-.277-4.7-.771-7.035-1.238v29l2 1h-3v-31l7.25-.687c9.11-1.026 17.49-3.495 24.75-9.313"/><path fill="#E0E2E6" d="M278 129c2.188 1.813 2.188 1.813 4 4v3h6v1h-10l-2 7-2-2-6 3q.715-3.188 1.438-6.375l.808-3.586C271 132 271 132 272 130c3-1 3-1 6-1"/><path fill="#0A0817" d="M108 198h1v31l2 1c-9.341 6.604-9.341 6.604-14.625 5.875L93 235c3.56-4.18 8.087-6.686 13-9h2z"/><path fill="#444442" d="M108 53h14c-2 2-2 2-8 3l-1 13h-1V57h-2l-1 46 4 1h-5z"/><path fill="#181920" d="M287 245h1c.604 14.953-.822 27.03-9 40l-2-1c.755-3.755 2.323-7.01 3.875-10.5 3.89-9.164 4.988-18.677 6.125-28.5"/><path fill="#0E142F" d="M123 202c1.665.34 3.332.676 5 1l1-2 2 1v7l-1.75-.625c-2.255-.602-2.255-.602-4.125.563-2.787 1.393-5.052 1.202-8.125 1.062l-1-5h3l-2-1v-2c2.558-1.279 3.299-.772 6 0"/><path fill="#EEEAE7" d="m128 90-1 9-4 1v-4l-2 1-.687 2.875C119 103 119 103 115.563 105L112 106l-3-2h5l-.562-2.625C114 98 114 98 115.898 96.335A137 137 0 0 1 123 92c3-2 3-2 5-2"/><path fill="#F4F4F1" d="M114 55h6v14l-6 3z"/><path fill="#C29C5B" d="M195.625 227.875 198 228l1 4 9-1 1 3h-3v2h2l1.313 1.375c2.043 1.968 4.032 2.692 6.687 3.625v3c-3.517-1.32-6.653-2.873-9.863-4.82l-2.686-1.621-2.763-1.684-2.823-1.707Q194.43 232.089 191 230c2-2 2-2 4.625-2.125"/><path fill="#16143F" d="m135 77 4 1v2q6.354-.177 12.708-.372 2.16-.065 4.324-.125 3.105-.088 6.21-.187l3.777-.11c2.907-.009 2.907-.009 4.981-1.206v2l2.438-.254c12.228-1.06 24.323-.417 36.562.254v1h-75z"/><path fill="#AD9064" d="M123 165c2.21 3.314 2.225 4.345 2.125 8.188l-.055 2.73L125 178c-3 1-3 1-5 .063L118 177h-3l1-3c-.394-2.638-.394-2.638-1-5z"/><path fill="#F1F1EF" d="m128 79-1 9-4 1-1-4h-2l.25 2.813C120 91 120 91 118.125 92.875 116 94 116 94 114 94c-.312-3.25-.312-3.25 0-7 2.063-2.187 2.063-2.187 5-4l1.82-1.129C125.602 79 125.602 79 128 79"/><path fill="#F2F2F0" d="M127 69v7l-4 2v-4h-3v7l-6 2c-.312-3.25-.312-3.25 0-7 2.188-2.25 2.188-2.25 5-4l2.625-1.75C124 69 124 69 127 69"/><path fill="#B79158" d="m172 212 2 1 1 3c2.01.696 2.01.696 4.375 1 2.632.412 4.256.73 6.414 2.313C187 221 187 221 187 225l3 1-1 3-1.687-1.137-2.313-1.55-2.465-1.668c-2.472-1.65-2.472-1.65-4.914-2.946-2.047-1.124-3.874-2.147-5.621-3.699-.5-3.312-.5-3.312 0-6"/><path fill="#262838" d="M240 178h-3v2h-5v8l11 1 1 3-15-1v-13c7.429-1.286 7.429-1.286 11 0"/><path fill="#0A0C22" d="M276 165c0 3 0 3-1.934 4.945l-2.503 2.18c-3.38 3.22-5.14 5.162-5.5 9.875l.035 2.25L266 186l-2 1-.113-1.863-.2-2.45-.175-2.425c-.594-2.625-1.47-3.57-3.512-5.262l1-2c2.322-.407 4.657-.744 7-1v-2h2v-2z"/><path fill="#E5EAF0" d="M271 295c1 3 1 3 1 4l3 1c-11.738 9-11.738 9-15 9l1-3 2-1v-3l-4 1 5-4 2.688-2.25C269 295 269 295 271 295"/><path fill="#F6F8FD" d="M290 244h4v18l-3-2h-2q-.04-3.72-.062-7.437l-.026-2.143c-.009-1.807.036-3.614.088-5.42z"/><path fill="#F7F9FD" d="m308 244 2 1 1 3 3-1v16l-5-1z"/><path fill="#EFF2F8" d="M279 173v2c-1.969 1.727-1.969 1.727-4.5 3.625l-2.531 1.914L270 182l3 2h-5l-1 2c-.35-3.4-.51-6.61 0-10 3.932-4.025 6.66-4.526 12-3"/><path fill="#14181C" d="M280 225c4.862 4.088 6.98 10.884 8 17 .067 5.417-.921 10.71-2 16h-1l-.078-3.113c-.288-7.809-1.018-14.306-4.067-21.602-1.061-2.835-1.18-5.286-.855-8.285"/><path fill="#7C6243" d="m127 134 2 1-3.027 1.61q-1.956 1.068-3.91 2.14l-1.999 1.055c-3.766 1.995-3.766 1.995-6.005 5.46L114 147l-5-1c-.312-2.25-.312-2.25 0-5 2.063-2.312 2.063-2.312 5-4q3.5-.061 7 0a133 133 0 0 0 6-3"/><path fill="#EAEEF2" d="m278 288 4 2c-1.303 3.91-2.748 6.418-6 9h-4l-1 2c-1-3-1-3-.437-5.375 1.925-3.515 4.256-5.205 7.437-7.625"/><path fill="#E2E6EE" d="M289 194c3.26 3.17 6.222 6.4 9 10h-4l-3 2-7-7 3-1c1.209-2 1.209-2 2-4"/><path fill="#B28E62" d="M126 105c3.875.875 3.875.875 5 2 .04 1.666.043 3.334 0 5a2349 2349 0 0 1-7.375 3.5l-2.117 1.012C116.227 119 116.227 119 114 119v-2a87 87 0 0 1 4.875-2.75c4.263-2.422 4.263-2.422 6.75-6.625z"/><path fill="#DFE5E8" d="m271 180 1 2 2.375.938c2.585 1.046 3.83 1.983 5.625 4.062-2 3-2 3-3.687 3.938-3.772.101-6.17-1.944-9.313-3.938l1-3 2-1-1-2z"/><path fill="#555" d="M122 56h1v11c3.17-1.62 3.17-1.62 3.512-4.164l.175-2.461.2-2.477L127 56h1c.548 3.802.777 7.221 0 11-2.576 2.852-5.392 4.679-9 6l-3-1 1.465-1.223c1.886-2.183 1.949-3.37 2.097-6.215.188-3.365.768-5.618 2.438-8.562"/><path fill="#DAE1E5" d="m288 304 2 1-6 6 6 1c-3.11 3.288-6.016 5.837-10 8l-.437-2.375c-.441-2.59-.441-2.59-1.563-4.625l1.68-1.46c.724-.633 1.449-1.264 2.195-1.915l2.18-1.898A91 91 0 0 0 288 304"/><path fill="#ECF2F4" d="M292 203c6.508 1.446 6.508 1.446 8.5 3.688.707 3.27.126 6.057-.5 9.312-3.449-1.15-3.842-1.825-5.687-4.812l-1.325-2.083C292 207 292 207 292 203"/><path fill="#E8EEF1" d="M250 177h3v8l7 2-2 4c-3.774-.524-6.492-1.027-9-4-.394-3.032-.369-5.966 0-9z"/><path fill="#55544E" d="M127 82c2.355 1.843 2.982 2.93 3.75 5.875.242 3.02-.133 5.192-.75 8.125.369 2.232.369 2.232 1 4l-4-1c-.125-6.75-.125-6.75 1-9l-3 2c-2.187-.375-2.187-.375-4-1v-6l2-1v5l4-1z"/><path fill="#191C2D" d="m254 169 1.813 1.438c2.19 1.727 2.19 1.727 5.187 2.562l-1 3-2.187-.687c-2.848-.519-2.848-.519-5.563.625-3.35 3.07-3.03 5.601-3.25 10.062h-1v-10l-2-1c2.366-2.615 4.942-4.264 8-6"/><path fill="#373744" d="M89 236h2l1 29-3 1z"/><path fill="#6C6D6A" d="m114 56 .148 3.21.227 4.165c.03.699.062 1.397.094 2.117.126 4.21.126 4.21 2.531 7.508-5.75-.75-5.75-.75-8-3-.23-2.277-.23-2.277-.187-4.937l.019-2.653C109 60 109 60 110 57c3-1 3-1 4-1"/><path fill="#090918" d="m315 244 2 1c.058 3.75.094 7.5.125 11.25.017 1.063.034 2.127.05 3.223l.02 3.105.032 2.857c-.236 2.665-.87 4.284-2.227 6.565-1.374-2.747-1.013-4.817-.879-7.883l.147-3.535.17-3.707.158-3.73A2975 2975 0 0 1 315 244"/><path fill="#32333E" d="M314 231c4.604 6.906 4.262 14.492 4.125 22.5l-.027 3.07q-.035 3.715-.098 7.43h-1l-1-19-2-1c-.45-2.18-.45-2.18-.687-4.875l-.262-2.68C313 234 313 234 314 231"/><path fill="#111217" d="M282 174a56.5 56.5 0 0 1-4 7l1.438 1.313C281 184 281 184 282 187c-3.594-1.335-6.755-2.96-10-5 1.817-4.624 4.869-8 10-8"/><path fill="#202126" d="m263 146 2 1c-.468 4.72-2.35 6.918-5.562 10.313l-2.504 2.675L255 162l-2-1c.57-3.561 1.804-5.09 4.438-7.5 2.55-2.343 4.172-4.314 5.562-7.5"/><path fill="#96764F" d="m126 138 4 1c.688 2.313.688 2.313 1 5-1.125 1.813-1.125 1.813-3 3-2.687.188-2.687.188-5 0v-7l-5 1 2-2h4v4h2z"/><path fill="#101021" d="M133 183v27l-3-1v-25c2-1 2-1 3-1"/><path fill="#F7F3F3" d="M116 152h4c.349 5.32.349 5.32 0 8-1.875 2-1.875 2-4 3h-2a293 293 0 0 1-.125-4.375l-.07-2.46C114 154 114 154 116 152"/><path fill="#191B2D" d="M256 178.875c3 .125 3 .125 4 1.125.188 2.438.188 2.438 0 5l-2 2c-4.556-.556-4.556-.556-6-2-.125-2.5-.125-2.5 0-5 1-1 1-1 4-1.125"/><path fill="#EDEFF4" d="m286 274 1 2 2 1-1 7-3 1c-1.562-1.125-1.562-1.125-3-3 .125-3.062.125-3.062 1-6z"/><path fill="#EEF1F2" d="m291 303 3 3c-.625 2.375-.625 2.375-2 5-2.937 1.438-2.937 1.438-6 2l-3-2z"/><path fill="#F2EEE6" d="m119 118 2 1c-.888 3.996-1.415 5.606-4.875 7.938-3.068 1.043-4.206 1.297-7.125.062l1-3 4 2-.312-2.312L114 121c2.375-1.875 2.375-1.875 5-3"/><path fill="#555554" d="M109 53h13c-2 2-2 2-8 3l-1 13h-1V57h-2l-1 3z"/><path fill="#DCDEE2" d="M279 123c3.82 1.556 6.26 3.956 9 7v2c-5.4.36-5.4.36-7.875-1.125-1.593-2.655-1.327-4.843-1.125-7.875"/><path fill="#1E2026" d="M261 332v2a446 446 0 0 1-6.25 1.625l-3.516.914c-3.35.478-4.502.34-7.234-1.539 2.797-1.507 5.403-2.482 8.5-3.187l2.281-.543c2.367-.288 3.964.008 6.219.73"/><path fill="#A38A6E" d="m116 183 1.75.938c2.093.988 3.995 1.579 6.25 2.062v3l-8 4c-1.51-6.981-1.51-6.981 0-10"/><path fill="#10111B" d="m269 130 2 2c-.224 6.393-2.17 11.315-5 17-1.113-1.656-1.113-1.656-2-4 .645-2.656.645-2.656 1.813-5.5 1.27-3.156 2.457-6.173 3.187-9.5"/><path fill="#CDD0D6" d="M282 120c3.29-.366 4.631-.262 7.375 1.688C291 124 291 124 290.75 126.75L290 129c-2 0-2 0-4.562-2.25-2.205-2.487-3.082-3.546-3.438-6.75"/><path fill="#CDCECE" d="M123 55h4v10l-4 2z"/><path fill="#090A13" d="M287 245h1q.08 4.375.125 8.75l.05 2.5.02 2.422.032 2.222c-.26 2.405-1.035 4.019-2.227 6.106-1.577-3.155-.868-6.444-.625-9.875l.133-2.184c.226-3.406.481-6.669 1.492-9.941"/><path fill="#14131D" d="M267 213c5.148 2.39 9.348 5.638 13 10 .313 3.313.313 3.313 0 6l-1.703-2.172c-3.012-3.709-6.24-7.198-9.469-10.719C267 214 267 214 267 213"/><path fill="#DBE0E6" d="M289 142c1.743 2.297 3.4 4.599 5 7-.375 2.688-.375 2.688-1 5l-5-1c-1.263-4.293-.63-6.878 1-11"/><path fill="#F2F4F7" d="M263 301c.598 1.86.598 1.86 1 4-1.562 2.25-1.562 2.25-4 4-3.25.25-3.25.25-6 0 0-2.312 0-2.312 1-5 2.555-1.383 5.209-2.218 8-3"/><path fill="#CFA660" d="M200 234h6v2h2l1.313 1.375c2.043 1.968 4.032 2.692 6.687 3.625v3c-3.937-1.432-7.29-3.303-10.812-5.562l-2.958-1.88L200 235z"/><path fill="#9A7A49" d="M172 209c-1.465 4.58-5.142 6.12-9.125 8.25l-1.996 1.102c-1.621.892-3.25 1.771-4.879 2.648l-1-2h2v-3l2.938-.875c3.169-.767 3.169-.767 4.062-3.125h4v-2c2-1 2-1 4-1"/><path fill="#0F1323" d="M290 135c1.184 3.552.695 4.698-.437 8.188l-.872 2.73L288 148h-2l.125-3.375c.286-3.669.286-3.669-2.125-5.625l5-1h-8v-1z"/><path fill="#DADAD8" d="m128 79-1 9-4 1-.875-1.875c-1.062-2.258-1.062-2.258-3.125-4.125 6.75-4 6.75-4 9-4"/><path fill="#111327" d="M293 269h2l1 9h-2v2h-4c1.875-7.625 1.875-7.625 3-11"/><path fill="#6F6F6D" d="M113 78h1q.54 1.966 1.063 3.938l.597 2.214L116 86l-1 1c.032 2.03.068 4.061.16 6.09C115 95 115 95 113 97v-7h-2v-8h2z"/><path fill="#D8DEE4" d="M271 295c1 3 1 3 1 4l3 1-7 5v-5l-4-1c4.75-4 4.75-4 7-4"/><path fill="#847262" d="m96 238 2 1-1 2c-.07 1.874-.084 3.75-.062 5.625l.027 3.04L97 252h6a42.4 42.4 0 0 1-8 5 2399 2399 0 0 1-.062-8.937l-.026-2.577-.01-2.45-.016-2.27C95 239 95 239 96 238"/><path fill="#534B43" d="m110 151 1 2-1 2 4-3 2 1c-3.75 3.875-3.75 3.875-6 5v15l-2 1c-.058-3.083-.094-6.166-.125-9.25-.017-.873-.034-1.745-.05-2.645l-.02-2.558-.032-2.349c.254-2.457 1.003-4.071 2.227-6.198"/><path fill="#DADBD5" d="m128 90-1 9-4 1-2-7c4.75-3 4.75-3 7-3"/><path fill="#CCCDCA" d="M127 69v7l-4 2v-4l-4-2c4.625-3 4.625-3 8-3"/><path fill="#F1F4F6" d="M282 191c2.938.75 2.938.75 6 2 .875 2.125.875 2.125 1 4-2.875.625-2.875.625-6 1l-2-2c.375-2.625.375-2.625 1-5"/><path fill="#EDE9DF" d="M116 141h4v5l-8 4v-3h2l.438-2.437C115 142 115 142 116 141"/><path fill="#1C1E2C" d="M257 83c9.41.964 9.41.964 14 2v2l3 1c-2.272-.06-4.542-.149-6.812-.25l-3.833-.14C260 87 260 87 258.051 84.952z"/><path fill="#E5E8EB" d="m258 158 5 5-5 4-1-2c-2.017-1.134-2.017-1.134-4-2z"/><path fill="#E9E6E5" d="M121 108c-.625 2.875-.625 2.875-2 6-3.125 1.375-3.125 1.375-6 2 1.467-6.6 1.467-6.6 4-8.5 2-.5 2-.5 4 .5"/><path fill="#DEDFE4" d="M258 82c-2.139 2.139-3.133 2.427-6 3v2c-3.868-1.118-6.29-2.029-9-5 10.558-1.333 10.558-1.333 15 0"/><path fill="#08081D" d="M229 54c1.437-.054 2.875-.093 4.313-.125l2.425-.07c3.721.321 5.799 2.614 8.262 5.195-8.429 1.286-8.429 1.286-13 0l3-3-5-1z"/><path fill="#23252B" d="m276 283 3 3-7 8-3-3z"/><path fill="#9E7750" d="M126 116c3.875.875 3.875.875 5 2 .04 1.666.043 3.334 0 5l-5 2 1-3-2-1z"/><path fill="#1D1E22" d="M289 90c1.855.258 1.855.258 4 1 1.3 1.742 1.3 1.742 2.313 3.875l1.05 2.117C297 99 297 99 296 102h-2q-1.256-2.434-2.5-4.875l-1.406-2.742C289 92 289 92 289 90"/><path fill="#2A2B2F" d="M279 184c4.834.414 6.895 2.378 10 6l1 3c-4.316 0-5.928-2.133-9-5v-2z"/><path fill="#363544" d="m221 170 7 1v1h-5v24h-1z"/><path fill="#141627" d="M278 80c4.037 1.794 6.645 3.206 9 7l-1 2-7-2c-.687-2.49-1-4.379-1-7"/><path fill="#15171F" d="M245.563 198.813c.785.17 1.57.342 2.378.519C250 200 250 200 252 202c-4.953 1.598-9.133.283-14-1v-2c3.232-1.077 4.336-.926 7.563-.187"/><path fill="#8D704F" d="M111 128c2 1 2 1 3 2l2 1-2 6-5-2c-.125-2.375-.125-2.375 0-5z"/><path fill="#191930" d="m240.75 75.438 2.422.87L245 77v2l2 1h-6v-1l-5-1v-2l-4-1c3.43-1.188 5.378-.802 8.75.438"/><path fill="#DFE1EA" d="m277 210 4 4-3 2c-.724 2.06-.724 2.06-1 4-4-4.75-4-4.75-4-7 2-1.625 2-1.625 4-3"/><path fill="#D9D8D5" d="M133 148v1h-6v7l-3 1-1-8c3.85-2.567 5.586-1.833 10-1"/><path fill="#25252A" d="M277 123h2l.938 3.438c.691 3.35.691 3.35 2.062 4.562q3.492.553 7 1l-2 2c-3.677-.134-6.11-.225-8.937-2.687-1.334-2.904-1.278-5.154-1.063-8.313"/><path fill="#26273B" d="m289 116 3 2v4l-3 1-2-2c-2.57-.648-2.57-.648-5-1l-1 2c0-3 0-3 1-4q3.5-.061 7 0z"/><path fill="#1C1D23" d="M259 96c2.783 1.056 4.004 2.005 5.875 4.375C266 103 266 103 265.188 105.313L264 107a217 217 0 0 1-2.5-3.25l-1.406-1.828C259 100 259 100 259 96"/><path fill="#0F1427" d="m269 202 5 1v2h3v3h3l1 5c-4.184-3.509-8.196-7.08-12-11"/><path fill="#EBECE4" d="M116 130h4v5l-6 2c-.125-2.375-.125-2.375 0-5z"/><path fill="#AA8C67" d="m121 147-1 2-3-1-.25 1.813c-.966 2.816-2.239 3.665-4.75 5.187h-2c.188-2.312.188-2.312 1-5 3.332-2.684 5.762-3.363 10-3"/><path fill="#EDE5D8" d="M128 124c2.313.813 2.313.813 4 2v6l-1.312-1.937c-1.6-2.33-1.6-2.33-4.688-3.063v5h-2l-1-5c2.25-1.625 2.25-1.625 5-3"/><path fill="#DEDFE5" d="M272 103h2l-1 2zm-1 1c2 3 2 3 1.758 5.043L271 115c-2.296-3.445-2.54-5.938-3-10z"/><path fill="#F1F5F8" d="m278 288 4 2-1 4-2.375-.062c-2.606-.125-2.606-.125-4.625 1.062l-1-3z"/><path fill="#D1D7D8" d="m274 81 5 5c-3.272 1.073-5.43.893-8.75.063l-2.422-.59L266 85v-1l2.875-.375c3.212-.342 3.212-.342 5.125-2.625"/><path fill="#141025" d="m103 253-2 7c-3.875-.875-3.875-.875-5-2 1-3 1-3 2.938-4.187C101 253 101 253 103 253"/><path fill="#D9DBE2" d="M263 178h1v9l-4 2v-2l-2-1 2-5 2 2z"/><path fill="#C09D64" d="M123 165c2 3 2 3 1.625 5.188L124 172h-6c1.25-3.653 1.671-4.78 5-7"/><path fill="#ECE7D3" d="m129 134 2 3-1 3-4-2v5h-2v-4l-2-1z"/><path fill="#705C47" d="M121 118h2v4l2 1-1.937.875c-2.215.953-2.215.953-3.063 3.125l2 1-4 1 1-3-2-1 2-1c.727-1.979 1.398-3.98 2-6"/><path fill="#F0F1F9" d="m253 83 4 1 1 4c-2.375.625-2.375.625-5 1l-2-2z"/><path fill="#0E0D25" d="M252 59c5.75 1.75 5.75 1.75 8 4-1.287.39-2.58.761-3.875 1.125l-2.18.633L252 65l-2-2h2z"/><path fill="#F0F5F8" d="M302 285c1.333 2.667.671 4.167 0 7h2l1-3-1 5-5-1c.75-5.75.75-5.75 3-8"/><path fill="#353640" d="m286 240 2 2a96 96 0 0 1-.875 8.125l-.316 2.285c-.26 1.865-.533 3.728-.809 5.59h-1q-.04-3.937-.062-7.875l-.026-2.262c-.025-5.636-.025-5.636 1.088-7.863"/><path fill="#94774F" d="M112 230c0 2 0 2-1.062 3.563-2.801 2.078-5.526 2.115-8.938 2.437v2l-4-1q2.933-1.757 5.875-3.5l3.305-1.969C110 230 110 230 112 230"/><path fill="#C29B64" d="m184 220 3 1v4l3 1-1 3-8-5z"/><path fill="#D5DBDF" d="M121 201.313c2 .687 2 .687 4 2.687v3c-5.75-1.875-5.75-1.875-8-3v-2c2-1 2-1 4-.687"/><path fill="#FBF0D5" d="M184 194h6v3l1.875.438C194 198 194 198 196 199v2c-4.308-1.566-8.062-3.683-12-6z"/><path fill="#CCCDDA" d="M279 87c1.46.114 2.917.242 4.375.375l2.46.21C288 88 288 88 290 90l-2.312.375c-2.89.506-2.89.506-5.688 2.625z"/><path fill="#DEE2E7" d="M116 205c5.75 1.75 5.75 1.75 8 4-1 1-1 1-4.062 1.063L117 210z"/><path fill="#F5F5FB" d="m276 117 2 2c-.023 2.383-.023 2.383-.375 5.125l-.336 2.758L277 129h-2v-7l-2-1 2-1z"/><path fill="#636361" d="m120 85 2 1-.062 2.375c-.125 2.606-.125 2.606 1.062 4.625l-6 3-1-3 3-2c.733-3.066.733-3.066 1-6"/><path fill="#272940" d="m276 78 5 1 1 4-4-2 2 4h-3c-1-1-1-1-1.062-4.062z"/><path fill="#0B0B21" d="M273 73c3.161 1.37 3.993 1.99 6 5h-3l-1 4-4-5h4z"/><path fill="#D0D4DC" d="m267 320 2 1-3 4 4 2-3 1v-2l-7-2c2.386-1.892 4.072-3.024 7-4"/><path fill="#191333" d="m95 234 5 2c-2.622 2.154-4.644 3.4-8 4 .573-2.867.861-3.861 3-6"/><path fill="#DAA756" d="m186 196 10 5-1 2c-2.062.625-2.062.625-4 1v-3l-1.937-.812C187 199 187 199 186 196"/><path fill="#21232D" d="M299 129h1c.222 1.79.427 3.582.625 5.375l.352 3.023L301 140l-2 2c-.947-2.842-1.135-4.676-1.125-7.625l-.008-2.414C298 130 298 130 299 129"/><path fill="#696864" d="M131 82h1l1 17-3-1c-1.226-3.678-.703-5.882-.062-9.687l.59-3.575z"/><path fill="#191A40" d="M232 78h3l1 4-4 1v-1l-12-1v-1h12z"/><path fill="#E4A64E" d="M244 258h5v5c-4.75-.75-4.75-.75-7-3h2z"/><path fill="#D8A966" d="M217 245h7v2l4 2v2c-4.508-1.258-7.491-2.904-11-6"/><path fill="#1A1C31" d="m255 191 2 3c-2.788 1.033-3.868 1.045-6.75.063L248 193v-2c3.134-1.045 4.021-1.153 7 0"/><path fill="#E1D9CA" d="M128 113v3h-2v5l-3 1v-4l-2-1z"/><path fill="#DBD6CB" d="m128 102 1 3-3 1-1 5h-2v-4l-2-1z"/><path fill="#111119" d="m268 292 3 1v2c-2.303 2.217-3.525 2.968-6.75 3.188L262 298z"/><path fill="#C38D3F" d="M172 210c6.429 4.143 6.429 4.143 9 7-2.812.313-2.812.313-6 0-1.886-2.389-3-3.919-3-7"/><path fill="#0C1223" d="M289 204c2.5 2.25 2.5 2.25 5 5v4h-2v-3l-4-1z"/><path fill="#BF9A6F" d="M127 134c-3.423 3.15-6.443 3.562-11 4v-2c3.823-1.423 6.913-2.24 11-2"/><path fill="#06080F" d="M296 123c2 2 2 2 2 5h3v8h-1l-1-6-4-1z"/><path fill="#AE8E64" d="m119 126-1 4-7 1c2.039-4.515 2.809-5 8-5"/><path fill="#3E3F47" d="M241 81h10v1l-7 1 2 2h-2l-1 2-3-3z"/><path fill="#292641" d="m267 69 5 1v3l-4-2 2 4h-3l-2-3z"/><path fill="#D7DAE3" d="m253 307 7 2c-2.686 2.686-5.376 3.06-9 4z"/><path fill="#1B2033" d="M294 210c2.4 2.88 4.473 5.564 6 9h-3c-3.223-5.273-3.223-5.273-4-7z"/><path fill="#B78639" d="m168 190-1 7h-3l-1-5c3-2 3-2 5-2"/><path fill="#14101F" d="m126 188-1 4-8 1c2.545-2.8 5.076-5 9-5"/><path fill="#2B2F3C" d="M249 172c1.535 2.433 2.03 3.671 1.758 6.578l-.633 2.672-.617 2.703L249 186h-1v-10l-2-1z"/><path fill="#F0F0EB" d="M119 152h1c.349 5.32.349 5.32 0 8-1.875 2-1.875 2-4 3h-2l2-4 2 1z"/><path fill="#A2885E" d="M109 141h3v3h2v3l-5-1z"/><path fill="#C5A890" d="M120 139h4l.313 1.875c.562 2.49.562 2.49 3.687 4.125l-2 2h-3v-7l-5 1z"/><path fill="#20202F" d="M244 85c5.538.615 5.538.615 7.875 2.563L253 89l-2 1a136 136 0 0 1-7-3z"/><path fill="#A27D2B" d="m162 193 2 1v3l-6 2c.313-1.875.313-1.875 1-4z"/><path fill="#F0F4F7" d="m287 151 5 2-1 5h-3z"/><path fill="#D2D6D9" d="M277 132q2.514.428 5 1v3h6v1c-6.75.125-6.75.125-9-1v-2l-3-1z"/><path fill="#D6D7DD" d="m279 123 4 2v3l-3 2c-1-1-1-1-1.062-4.062z"/><path fill="#2B2B49" d="m251 58 2 3-3 3c-3.875-1.75-3.875-1.75-5-4l5 1z"/><path fill="#F6FAF9" d="m287 307 3 2v3c-1.812.625-1.812.625-4 1l-3-2z"/><path fill="#D09C4A" d="M209 232v2h-9v-2c3.378-.845 5.675-1.108 9 0"/><path fill="#C7CCD1" d="m289 194 4 4-4-1zm-2 2 2 2-2 4-3-4h3z"/><path fill="#26272C" d="m277 175 2 2c-1.25 2.5-1.25 2.5-3 5h-4c1.293-2.884 2.66-4.872 5-7"/><path fill="#4F4F4D" d="M122 56h1v11h-3c-.286-7.429-.286-7.429 2-11"/><path fill="#0D0F13" d="M308 286c1.188 1.625 1.188 1.625 2 4-1.375 3.25-1.375 3.25-3 6h-1c-.18-3.947-.094-6.598 2-10"/><path fill="#EFF2F8" d="M308 226h2c.625 1.813.625 1.813 1 4-2 3-2 3-4 4l-1-4h2z"/><path fill="#191B28" d="m104 227 2 2c-5.625 4-5.625 4-9 4v-2z"/><path fill="#FAEECF" d="m238 227 8 1v4c-3.375-1.186-5.647-2.276-8-5"/><path fill="#1F1F2F" d="M280 225c2.5 2.174 3.436 3.73 4 7l-3 1c-1.354-2.709-1.065-5.01-1-8"/><path fill="#2D2E3C" d="M267 212c3.674.306 4.781.758 7.313 3.563L276 218c-4.412 0-5.784-2.07-9-5z"/><path fill="#F8F0D9" d="M145 203c-5.143 4.429-5.143 4.429-9 5 1.648-4.943 4.231-5.258 9-5"/><path fill="#090C1E" d="M251.313 188.875 253 190c-3.371 1.498-5.204 2-9 2v-2c4.43-2.215 4.43-2.215 7.313-1.125"/><path fill="#DDDDE1" d="m256 91 6 2 1 5a858 858 0 0 1-3.5-2.937l-1.969-1.653L256 92z"/><path fill="#F2F3F1" d="M126 69h1v7l-3 1c-.125-2.875-.125-2.875 0-6z"/><path fill="#292B36" d="M313 268c1.563 1.563 1.563 1.563 3 4-.312 3.75-.312 3.75-1 7-2-2-2-2-2.195-4.164l.07-2.461.055-2.477z"/><path fill="#D39543" d="m195 224 5 2v4h-2v-2h-2z"/><path fill="#171317" d="M172 211v7l-3-1c-.687-2.062-.687-2.062-1-4 3-2 3-2 4-2"/><path fill="#F5F9F9" d="m264 201 3 3-1 2h-5c1.875-3.875 1.875-3.875 3-5"/><path fill="#121323" d="M258 190c.934 3.01 1.044 3.867 0 7l-4-3 2-1-2-2z"/><path fill="#080B20" d="m256 168 5 1v4l-6-1z"/><path fill="#262633" d="M292 154h2c1 3 1 3-.437 6.188L292 163l-2-2z"/><path fill="#645746" d="M121 140h2l1 5-5 2z"/><path fill="#DBDEE4" d="M282 120h5l2 4c-2.621 0-4.51-.313-7-1z"/><path fill="#504F3F" d="M121 107h2l1 5-4 2c-.043-2-.04-4 0-6z"/><path fill="#665D56" d="M121 96h2l1 5-4 2c-.043-2-.04-4 0-6z"/><path fill="#1B2134" d="m284 288 2 1-2 6h-3c.613-2.962 1.254-4.38 3-7"/><path fill="#936D48" d="m96 249 1 3h6c-2.386 1.892-4.072 3.024-7 4z"/><path fill="#1E2033" d="M166 214c3 1 3 1 4.188 3.063L171 219l-3 1-1-3h-3v-2z"/><path fill="#A3833D" d="M135 209c0 3 0 3-2 6l-3-1c.813-1.937.813-1.937 2-4z"/><path fill="#F8EDD1" d="M156 193h6c-2.353 2.724-4.625 3.814-8 5v-3h2z"/><path fill="#C7A57B" d="m117 176 7 2v2c-1.812.625-1.812.625-4 1l-3-2z"/><path fill="#383A3E" d="m256 155 2 2-3 5-2-1c.573-2.867.861-3.861 3-6"/><path fill="#E3E5EB" d="m299 293 5 1-3 6h-1z"/><path fill="#8D714A" d="M157 216h6c-2.688 2.252-4.646 3.882-8 5v-2h2z"/><path fill="#25262C" d="m305 211 3 1 1 3-1 2h-2c-1.062-1.875-1.062-1.875-2-4z"/><path fill="#FCF3D8" d="m198 200 5 3-1 3-6-4z"/><path fill="#F0F5F9" d="M289 197h2c.625 1.875.625 1.875 1 4l-2 2-2-1z"/><path fill="#E6EAEF" d="m279 187 5 2v1h-6zm-4 3 3 1-3 1z"/><path fill="#2A2C39" d="M258 181h1v5c-1.875.625-1.875.625-4 1l-2-2 5-1z"/><path fill="#0E0E18" d="M238 169c-3.228 2.152-4.284 2.2-8 2v-2c2.862-1.43 4.934-.6 8 0"/><path fill="#F4F6FA" d="m274 141 1 3-2.375.875c-2.722.974-2.722.974-4.625 3.125.188-1.812.188-1.812 1-4 2.563-1.75 2.563-1.75 5-3"/><path fill="#5B5151" d="M121 129h2l1 5-4 1a100 100 0 0 1 0-5z"/><path fill="#EAE0D4" d="m114 123 1 2 2 1c-2.354 1.43-3.48 2.087-6.25 1.625L109 127l1-3 4 2z"/><path fill="#2B2A3A" d="M268 112h2c1.467 3.815.433 6.29-1 10h-1z"/><path fill="#4A4B48" d="M122 84h1v5l3 1-1 2-4-1c-.043-2-.04-4 0-6z"/><path fill="#EAEBE8" d="m119 88 1 3c-3.75 3-3.75 3-6 3l1-3h2v-2z"/><path fill="#646562" d="m120 68 3 3-6 2v-3z"/><path fill="#77787C" d="M128 56h1v13h-3l1-2c.228-1.87.41-3.747.563-5.625l.253-3.04z"/><path fill="#FEFEFE" d="M229 399h6v1h-6zM165 399h6v1h-6zM399 229h1v6h-1z"/><path fill="#FCFFFE" d="M0 229h1v6H0z"/><path fill="#FEFDFE" d="M399 165h1v6h-1z"/><path fill="#FCFFFE" d="M0 165h1v6H0z"/><path fill="#FEFEFE" d="M229 0h6v1h-6zM165 0h6v1h-6zM235 398h5v1h-5zM160 398h5v1h-5zM398 235h1v5h-1z"/><path fill="#FCFFFE" d="M1 235h1v5H1z"/><path fill="#FCFEFE" d="M398 160h1v5h-1z"/><path fill="#FCFFFE" d="M1 160h1v5H1z"/><path fill="#FEFEFE" d="M235 1h5v1h-5zM160 1h5v1h-5zM241 397l4 1ZM155 397l4 1ZM245 396l4 1ZM151 396l4 1ZM249 395l4 1ZM147 395l4 1ZM325 357l2 1h-3zM73 357l3 1h-3zM331 352l2 1h-3zM67 352l3 1h-3zM46 330l2 1-1 2zM353 330v3ZM41 324l2 1-1 2zM358 324v3ZM395 249l1 4ZM4 249l1 4ZM396 245l1 4Z"/><path fill="#FCFFFE" d="m3 245 1 4Z"/><path fill="#FEFEFE" d="m397 241 1 4Z"/><path fill="#FCFFFE" d="m2 241 1 4ZM397 155l1 4Z"/><path fill="#FEFEFE" d="m2 155 1 4Z"/><path fill="#FCFFFE" d="m396 151 1 4Z"/><path fill="#FEFEFE" d="m3 151 1 4Z"/><path fill="#FCFFFE" d="m395 147 1 4Z"/><path fill="#FEFEFE" d="m4 147 1 4ZM357 73l2 1-1 2z"/><path fill="#FDFDFD" d="M42 73v3Z"/><path fill="#FEFEFE" d="m352 67 2 1-1 2z"/><path fill="#FDFDFD" d="M47 67v3ZM330 46l3 1h-3zM68 46l2 1h-3zM324 41l3 1h-3zM74 41l2 1h-3z"/><path fill="#FEFEFE" d="m249 4 4 1ZM147 4l4 1ZM245 3l4 1ZM151 3l4 1ZM241 2l4 1ZM155 2l4 1ZM253 394l3 1ZM144 394l3 1ZM257 393l3 1ZM140 393l3 1Z"/><path fill="#FDFEFE" d="m260 392 3 1Z"/><path fill="#FEFEFE" d="m137 392 3 1Z"/><path fill="#FCFDFD" d="m263 391 3 1Z"/><path fill="#FEFEFE" d="m134 391 3 1Z"/><path fill="#FCFFFE" d="m266 390 3 1Z"/><path fill="#FEFEFE" d="m131 390 3 1Z"/><path fill="#FCFEFE" d="m271 388 3 1Z"/><path fill="#FEFEFE" d="m126 388 3 1Z"/><path fill="#FCFFFE" d="m276 386 3 1Z"/><path fill="#FEFEFE" d="m121 386 3 1ZM276 13l3 1ZM121 13l3 1ZM271 11l3 1ZM126 11l3 1ZM266 9l3 1ZM131 9l3 1ZM263 8l3 1ZM134 8l3 1ZM260 7l3 1Z"/><path fill="#FDFDFD" d="m137 7 3 1Z"/><path fill="#FEFEFE" d="m257 6 3 1Z"/><path fill="#FDFDFD" d="m140 6 3 1Z"/><path fill="#FEFEFE" d="m253 5 3 1ZM144 5l3 1ZM269 389l2 1ZM129 389l2 1Z"/><path fill="#FCFFFE" d="m274 387 2 1Z"/><path fill="#FEFEFE" d="m124 387 2 1Z"/><path fill="#FCFFFE" d="m279 385 2 1Z"/><path fill="#FEFEFE" d="m119 385 2 1Z"/><path fill="#FCFFFE" d="m281 384 2 1Z"/><path fill="#FEFEFE" d="m117 384 2 1ZM283 383l2 1ZM115 383l2 1ZM285 382l2 1ZM113 382l2 1ZM293 378l2 1ZM105 378l2 1ZM295 377l2 1ZM103 377l2 1ZM297 376l2 1ZM101 376l2 1ZM299 375l2 1ZM99 375l2 1ZM302 373l2 1ZM96 373l2 1Z"/><path fill="#FDFDFD" d="m304 372 2 1Z"/><path fill="#FEFEFE" d="m94 372 2 1Z"/><path fill="#FDFDFD" d="m307 370 2 1Z"/><path fill="#FEFEFE" d="m91 370 2 1Z"/><path fill="#FDFDFD" d="m310 368 2 1Z"/><path fill="#FEFEFE" d="m88 368 2 1ZM313 366l2 1ZM85 366l2 1ZM316 364l2 1ZM82 364l2 1ZM320 361l2 1ZM78 361l2 1Z"/><path fill="#FDFDFD" d="m320 38 2 1ZM78 38l2 1ZM316 35l2 1Z"/><path fill="#FEFEFE" d="m82 35 2 1Z"/><path fill="#FDFDFD" d="m313 33 2 1Z"/><path fill="#FEFEFE" d="m85 33 2 1ZM310 31l2 1Z"/><path fill="#FFF" d="m88 31 2 1Z"/><path fill="#FEFEFE" d="m307 29 2 1Z"/><path fill="#FFF" d="m91 29 2 1Z"/><path fill="#FEFEFE" d="m304 27 2 1Z"/><path fill="#FFF" d="m94 27 2 1Z"/><path fill="#FEFEFE" d="m302 26 2 1ZM96 26l2 1ZM299 24l2 1ZM99 24l2 1ZM297 23l2 1ZM101 23l2 1ZM295 22l2 1ZM103 22l2 1ZM293 21l2 1ZM105 21l2 1ZM285 17l2 1ZM113 17l2 1ZM283 16l2 1ZM115 16l2 1ZM281 15l2 1ZM117 15l2 1ZM279 14l2 1ZM119 14l2 1ZM274 12l2 1ZM124 12l2 1ZM269 10l2 1ZM129 10l2 1Z"/></svg>